<svg width="21" height="24" viewBox="0 0 21 24" fill="none" xmlns="http://www.w3.org/2000/svg">
<path d="M17.5803 2.47135C16.2864 1.58564 14.8854 0.942784 13.426 0.571355C13.4132 0.570755 13.4005 0.574281 13.3888 0.581685C13.377 0.589089 13.3665 0.600192 13.358 0.614212C13.1829 1.08564 12.9785 1.69993 12.8423 2.17135C11.2944 1.82849 9.72027 1.82849 8.17239 2.17135C8.03618 1.68564 7.83187 1.08564 7.64703 0.614212C7.63729 0.585641 7.6081 0.571355 7.57892 0.571355C6.11957 0.942784 4.72833 1.58564 3.42465 2.47135C3.41492 2.47135 3.40519 2.48565 3.39546 2.49993C0.749178 8.31422 0.0195035 13.9714 0.379476 19.5713C0.379476 19.5999 0.389204 19.6286 0.408663 19.6428C2.15988 21.5285 3.84299 22.6714 5.50664 23.4285C5.53583 23.4429 5.56502 23.4285 5.57476 23.4C5.96391 22.6142 6.31415 21.7857 6.61575 20.9143C6.63521 20.857 6.61575 20.7999 6.57684 20.7857C6.02228 20.4713 5.49692 20.1 4.98128 19.6714C4.94237 19.6428 4.94237 19.5571 4.97155 19.5142C5.07858 19.3999 5.18559 19.2713 5.29261 19.1571C5.31207 19.1285 5.34126 19.1285 5.36071 19.1427C8.70748 21.3857 12.3169 21.3857 15.6248 19.1427C15.6442 19.1285 15.6734 19.1285 15.6929 19.1571C15.7999 19.2857 15.9069 19.3999 16.014 19.5285C16.0529 19.5713 16.0529 19.657 16.0042 19.6857C15.4983 20.1285 14.9633 20.4857 14.4087 20.7999C14.3697 20.8142 14.36 20.8857 14.3697 20.9285C14.6811 21.7999 15.0313 22.6286 15.4108 23.4142C15.4399 23.4285 15.4691 23.4429 15.4983 23.4285C17.1717 22.6714 18.8548 21.5285 20.606 19.6428C20.6255 19.6286 20.6352 19.5999 20.6352 19.5713C21.0633 13.0999 19.925 7.48563 17.6193 2.49993C17.6095 2.48565 17.5998 2.47135 17.5803 2.47135ZM7.12166 16.1571C6.11957 16.1571 5.28289 14.7999 5.28289 13.1285C5.28289 11.4571 6.10012 10.0999 7.12166 10.0999C8.15293 10.0999 8.97017 11.4713 8.96044 13.1285C8.96044 14.7999 8.14321 16.1571 7.12166 16.1571ZM13.9027 16.1571C12.9007 16.1571 12.0639 14.7999 12.0639 13.1285C12.0639 11.4571 12.8812 10.0999 13.9027 10.0999C14.9341 10.0999 15.7513 11.4713 15.7415 13.1285C15.7415 14.7999 14.9341 16.1571 13.9027 16.1571Z" fill="black"/>
</svg>
