<svg width="20" height="24" viewBox="0 0 20 24" fill="none" xmlns="http://www.w3.org/2000/svg">
<path d="M14.0438 0.593628C11.7935 0.593628 9.63525 1.20272 8.04401 2.28691C6.45275 3.37111 5.55879 4.84159 5.55879 6.37488V9.59362H1.01813C0.790643 9.59362 0.605347 9.71863 0.605347 9.87487V14.1249C0.605347 14.2799 0.788807 14.4061 1.01813 14.4061H5.55879V23.1249C5.55879 23.2798 5.74225 23.4061 5.97158 23.4061H12.2092C12.4367 23.4061 12.622 23.2812 12.622 23.1249V14.4061H17.203C17.392 14.4061 17.5571 14.3186 17.603 14.1936L19.1624 9.94363C19.1777 9.90216 19.179 9.85884 19.1661 9.81699C19.1532 9.77514 19.1264 9.73584 19.0878 9.7021C19.0493 9.66835 18.9999 9.64104 18.9435 9.62224C18.8872 9.60345 18.8252 9.59365 18.7625 9.59362H12.622V6.37488C12.622 6.24766 12.6588 6.12169 12.7303 6.00415C12.8017 5.88661 12.9064 5.77983 13.0385 5.68987C13.1705 5.5999 13.3272 5.52855 13.4997 5.47987C13.6722 5.43118 13.8571 5.40613 14.0438 5.40613H18.8138C19.0413 5.40613 19.2266 5.28112 19.2266 5.12488V0.874878C19.2266 0.719878 19.0432 0.593628 18.8138 0.593628H14.0438Z" fill="black"/>
</svg>
