<svg width="23" height="24" viewBox="0 0 23 24" fill="none" xmlns="http://www.w3.org/2000/svg">
<path d="M16.4529 0.28125H6.56321C4.89409 0.28125 3.29333 0.972654 2.11308 2.20336C0.932831 3.43407 0.269775 5.10327 0.269775 6.84375V17.1562C0.269775 18.8967 0.932831 20.5659 2.11308 21.7966C3.29333 23.0274 4.89409 23.7188 6.56321 23.7188H16.4529C18.122 23.7188 19.7227 23.0274 20.903 21.7966C22.0833 20.5659 22.7463 18.8967 22.7463 17.1562V6.84375C22.7463 5.10327 22.0833 3.43407 20.903 2.20336C19.7227 0.972654 18.122 0.28125 16.4529 0.28125ZM11.508 17.625C10.4411 17.625 9.3982 17.2952 8.51109 16.677C7.624 16.059 6.93259 15.1804 6.5243 14.1526C6.11601 13.1248 6.00918 11.9938 6.21734 10.9026C6.42547 9.81147 6.93923 8.8092 7.69365 8.02252C8.44807 7.23585 9.40925 6.70013 10.4557 6.48309C11.5021 6.26604 12.5867 6.37743 13.5724 6.80317C14.5581 7.22892 15.4006 7.94989 15.9933 8.87491C16.5861 9.79995 16.9024 10.8875 16.9024 12C16.9024 13.4918 16.3341 14.9226 15.3225 15.9776C14.3108 17.0324 12.9387 17.625 11.508 17.625ZM17.352 7.3125C17.0853 7.3125 16.8245 7.23003 16.6028 7.0755C16.381 6.92099 16.2081 6.70135 16.1061 6.4444C16.0039 6.18744 15.9772 5.90469 16.0293 5.6319C16.0813 5.35913 16.2098 5.10855 16.3984 4.91189C16.587 4.71522 16.8272 4.58128 17.0888 4.52701C17.3505 4.47276 17.6217 4.50062 17.8681 4.60704C18.1145 4.71348 18.3251 4.89372 18.4733 5.12498C18.6214 5.35623 18.7005 5.62812 18.7005 5.90625C18.7005 6.27921 18.5584 6.6369 18.3055 6.90061C18.0526 7.16434 17.7096 7.3125 17.352 7.3125Z" fill="black"/>
</svg>
