<svg width="22" height="24" viewBox="0 0 22 24" fill="none" xmlns="http://www.w3.org/2000/svg">
<path d="M4.89949 3.25015C4.8992 3.9132 4.67153 4.54894 4.26655 5.01756C3.86158 5.48616 3.31248 5.74923 2.74005 5.7489C2.16762 5.74857 1.61874 5.48485 1.21417 5.01579C0.809602 4.54671 0.582478 3.91069 0.582764 3.24765C0.58305 2.5846 0.810723 1.94886 1.2157 1.48025C1.62067 1.01164 2.16977 0.74857 2.7422 0.748902C3.31464 0.749233 3.86352 1.01294 4.26808 1.48202C4.67264 1.95109 4.89978 2.58711 4.89949 3.25015ZM4.96424 7.60015H0.647515V23.2502H4.96424V7.60015ZM11.7847 7.60015H7.48953V23.2502H11.7415V15.0376C11.7415 10.4626 16.8892 10.0377 16.8892 15.0376V23.2502H21.1519V13.3377C21.1519 5.62515 13.5329 5.91265 11.7415 9.70016L11.7847 7.60015Z" fill="black"/>
</svg>
