<svg width="23" height="23" viewBox="0 0 23 23" fill="none" xmlns="http://www.w3.org/2000/svg">
<path d="M3.66179 1.08941C5.20315 0.541438 6.99038 0.8843 8.22409 2.11801C9.45815 3.35208 9.80088 5.13996 9.25222 6.68163L22.8081 20.2376L20.1565 22.8893L6.5992 9.3338C5.05784 9.88176 3.27061 9.53889 2.0369 8.3052C0.802838 7.07114 0.460126 5.28325 1.00876 3.74159L3.80466 6.53744C4.5369 7.26966 5.72409 7.26966 6.45631 6.53744C7.18855 5.8052 7.18855 4.61801 6.45631 3.88579L3.66179 1.08941ZM16.621 3.44384L20.5985 1.23413L22.3662 3.0019L20.1565 6.97938L17.9468 7.42131L15.2951 10.073L13.5274 8.3052L16.179 5.65355L16.621 3.44384ZM7.78215 13.1665L10.4338 15.8183L4.24661 22.0054C3.51438 22.7376 2.32719 22.7376 1.59496 22.0054C0.905801 21.3163 0.865263 20.224 1.47334 19.4875L1.59496 19.3538L7.78215 13.1665Z" fill="black"/>
</svg>
