<svg width="24" height="24" viewBox="0 0 24 24" fill="none" xmlns="http://www.w3.org/2000/svg">
<path fill-rule="evenodd" clip-rule="evenodd" d="M12.0085 0.571289C12.9591 0.571289 13.9343 0.602717 14.8794 0.654146L15.9958 0.722717L17.0642 0.804146L18.0649 0.89129L18.9789 0.982718C19.9708 1.08026 20.9041 1.62407 21.6146 2.51849C22.3252 3.4129 22.7675 4.60063 22.8639 5.87271L22.9083 6.47986L22.9917 7.77986C23.0695 9.12701 23.1274 10.5956 23.1274 11.9999C23.1274 13.4042 23.0695 14.8727 22.9917 16.2199L22.9083 17.5198C22.8939 17.7285 22.8793 17.9299 22.8639 18.127C22.7675 19.3994 22.3249 20.5872 21.6142 21.4817C20.9034 22.3761 19.9698 22.9198 18.9778 23.017L18.066 23.107L17.0653 23.1957L15.9958 23.2771L14.8794 23.3457C13.923 23.399 12.9658 23.4266 12.0085 23.4285C11.0512 23.4266 10.094 23.399 9.13759 23.3457L8.02127 23.2771L6.95274 23.1957L5.95205 23.107L5.03808 23.017C4.04623 22.9195 3.11292 22.3757 2.40233 21.4812C1.69176 20.5869 1.24942 19.399 1.15316 18.127L1.10869 17.5198L1.0253 16.2199C0.940281 14.8158 0.895035 13.4082 0.889648 11.9999C0.889648 10.5956 0.947466 9.12701 1.0253 7.77986L1.10869 6.47986C1.12314 6.27129 1.1376 6.06986 1.15316 5.87271C1.24939 4.60085 1.69156 3.41331 2.40192 2.51892C3.11226 1.62453 4.04531 1.08058 5.03697 0.982718L5.94983 0.89129L6.95053 0.804146L8.02015 0.722717L9.13649 0.654146C10.0933 0.600764 11.0508 0.573139 12.0085 0.571289ZM9.78471 8.53558V15.4641C9.78471 16.1241 10.3407 16.5356 10.7854 16.207L15.4554 12.7427C15.5569 12.6676 15.6414 12.5593 15.7001 12.4289C15.7587 12.2985 15.7896 12.1505 15.7896 11.9999C15.7896 11.8492 15.7587 11.7012 15.7001 11.5708C15.6414 11.4404 15.5569 11.3322 15.4554 11.257L10.7854 7.79415C10.684 7.7189 10.5689 7.67928 10.4517 7.67931C10.3346 7.67933 10.2195 7.71898 10.1181 7.79429C10.0167 7.86958 9.93245 7.97786 9.87393 8.10825C9.81541 8.23862 9.78464 8.38507 9.78471 8.53558Z" fill="black"/>
</svg>
